<?xml version="1.0" encoding="iso-8859-1"?>
<!-- Generator: Adobe Illustrator 19.0.0, SVG Export Plug-In . SVG Version: 6.00 Build 0)  -->
<svg version="1.1" id="Layer_1" xmlns="http://www.w3.org/2000/svg" xmlns:xlink="http://www.w3.org/1999/xlink" x="0px" y="0px"
	 viewBox="0 0 400.43 400.43" style="enable-background:new 0 0 400.43 400.43;" xml:space="preserve">
<g>
	<g>
		<path style="fill:#FCD09F;" d="M400.43,154.843c0,15-12.16,27.17-27.17,27.17h-134c7.5,0,14.3,3.04,19.22,7.96
			c0.86,0.86,1.66,1.77,2.39,2.74c3.5,4.57,5.57,10.28,5.57,16.48c0,15-12.17,27.17-27.18,27.17h-18.75c7.51,0,14.3,3.04,19.22,7.96
			c4.92,4.92,7.96,11.72,7.96,19.22c0,15.01-12.17,27.17-27.18,27.17l-12.77,0.01c12.94,0,23.86,10.21,24.06,23.15
			c0.11,6.65-2.55,12.67-6.89,17.02c-4.25,4.25-10.14,6.89-16.64,6.89H89.37c-6.25,0-12.48-0.44-18.65-1.33
			c-6.17-0.88-12.28-2.21-18.27-3.96c-8.52-2.49-17.19-4.37-25.96-5.62c-8.76-1.25-17.61-1.88-26.49-1.88v-181.26h27.88
			c4.51,0,8.8-1.3,12.45-3.62c3.66-2.32,6.67-5.66,8.59-9.74c1.85-3.93,5.02-9.05,8.19-13.82c5.9-8.89,14.15-15.98,23.81-20.51
			l64.94-30.43c11.11-5.22,24.24-3.45,33.57,4.52l12.17,10.39c7.06,6.03,16.36,8.76,25.54,7.51c1.1-0.15,2.19-0.23,3.26-0.23
			c12.89,0,23.71,10.48,23.71,23.76c0,1.83-0.13,3.63-0.37,5.39c-0.51,3.76-1.55,7.35-3.04,10.7h132.56c7.51,0,14.3,3.04,19.22,7.97
			C397.39,140.543,400.43,147.343,400.43,154.843z"/>
	</g>
	<path style="fill:#E2B991;" d="M243.74,116.953c-0.51,3.76-1.55,7.35-3.04,10.7H138.9c0-2.96,1.2-5.63,3.14-7.57
		c1.94-1.93,4.61-3.13,7.57-3.13H243.74z"/>
</g>
<g>
</g>
<g>
</g>
<g>
</g>
<g>
</g>
<g>
</g>
<g>
</g>
<g>
</g>
<g>
</g>
<g>
</g>
<g>
</g>
<g>
</g>
<g>
</g>
<g>
</g>
<g>
</g>
<g>
</g>
</svg>
